<svg xmlns="http://www.w3.org/2000/svg" width="20.158" height="23.516" viewBox="0 0 20.158 23.516"><g transform="translate(0)"><path d="M1531.715,37.547a.726.726,0,0,0-.717-.669h-3.6v-1.47a4.32,4.32,0,1,0-8.639,0v1.47h-3.6a.726.726,0,0,0-.717.669L1513,53.715a.745.745,0,0,0,.186.562.714.714,0,0,0,.532.239h18.717a.713.713,0,0,0,.532-.239.744.744,0,0,0,.186-.562ZM1520.2,35.408a2.88,2.88,0,1,1,5.759,0v1.47H1520.2Zm-5.691,17.638,1.309-14.7h2.942v1.674a1.44,1.44,0,1,0,1.44,0V38.348h5.759v1.674a1.44,1.44,0,1,0,1.44,0V38.348h2.942l1.308,14.7Z" transform="translate(-1513 -30.999)" fill="#171717"/></g></svg>