<svg xmlns="http://www.w3.org/2000/svg" width="21.298" height="21.298" viewBox="0 0 21.298 21.298"><g transform="translate(1 1)"><g transform="translate(0 0)"><path d="M7.825,3h9.649A4.825,4.825,0,0,1,22.3,7.825v9.649A4.825,4.825,0,0,1,17.474,22.3H7.825A4.825,4.825,0,0,1,3,17.474V7.825A4.825,4.825,0,0,1,7.825,3Z" transform="translate(-3 -3)" fill="none" stroke="#171717" stroke-linecap="round" stroke-linejoin="round" stroke-width="2"/><path d="M19.742,15.229a3.86,3.86,0,1,1-3.252-3.252,3.86,3.86,0,0,1,3.252,3.252Z" transform="translate(-6.234 -6.187)" fill="none" stroke="#171717" stroke-linecap="round" stroke-linejoin="round" stroke-width="2"/><path d="M26.25,9.75h0" transform="translate(-11.294 -5.408)" fill="none" stroke="#171717" stroke-linecap="round" stroke-linejoin="round" stroke-width="2"/></g></g></svg>