<svg xmlns="http://www.w3.org/2000/svg" xmlns:xlink="http://www.w3.org/1999/xlink" width="56.12" height="33.672" viewBox="0 0 56.12 33.672"><defs><clipPath id="a"><rect width="36.528" height="21.917" fill="#404040"/></clipPath></defs><g style="mix-blend-mode:luminosity;isolation:isolate"><rect width="56.12" height="33.672" fill="#fff"/><g transform="translate(8.786 5.878)" style="isolation:isolate"><path d="M45.523,22.761a10.958,10.958,0,1,1-21.917,0h0a10.958,10.958,0,1,1,21.917,0Z" transform="translate(-8.995 -11.803)" fill="#ffb600"/><path d="M34.564,11.8A10.987,10.987,0,0,1,45.523,22.761h0a10.958,10.958,0,1,1-21.917,0" transform="translate(-8.995 -11.803)" fill="#f7981d"/><path d="M41.311,11.8A10.987,10.987,0,0,1,52.269,22.761h0A10.95,10.95,0,0,1,41.311,33.72" transform="translate(-15.741 -11.803)" fill="#ff8500"/><path d="M10.842,11.8a10.959,10.959,0,0,0,.116,21.917,11.086,11.086,0,0,0,7.364-2.841h0a10.419,10.419,0,0,0,1.1-1.16H17.162a13.375,13.375,0,0,1-.812-1.1h3.885a7.427,7.427,0,0,0,.638-1.16h-5.16a6.91,6.91,0,0,1-.464-1.16h6.03a11.513,11.513,0,0,0,.58-3.479,14.966,14.966,0,0,0-.232-2.319H14.9a8.477,8.477,0,0,1,.29-1.16h6.03a6.91,6.91,0,0,0-.464-1.16h-5.1a11.5,11.5,0,0,1,.638-1.16h3.885a5.514,5.514,0,0,0-.87-1.16H17.162a9.882,9.882,0,0,1,1.1-1.1A10.7,10.7,0,0,0,10.9,11.919C10.9,11.8,10.9,11.8,10.842,11.8Z" transform="translate(0 -11.803)" fill="#ff5050"/><path d="M0,22.833A10.95,10.95,0,0,0,10.958,33.791a11.086,11.086,0,0,0,7.364-2.841h0a10.419,10.419,0,0,0,1.1-1.16H17.162a13.376,13.376,0,0,1-.812-1.1h3.885a7.427,7.427,0,0,0,.638-1.16h-5.16a6.91,6.91,0,0,1-.464-1.16h6.03a11.513,11.513,0,0,0,.58-3.479,14.966,14.966,0,0,0-.232-2.319H14.9a8.477,8.477,0,0,1,.29-1.16h6.03a6.91,6.91,0,0,0-.464-1.16h-5.1a11.5,11.5,0,0,1,.638-1.16h3.885a5.514,5.514,0,0,0-.87-1.16H17.162a9.882,9.882,0,0,1,1.1-1.1A10.7,10.7,0,0,0,10.9,11.99h-.058" transform="translate(0 -11.874)" fill="#e52836"/><path d="M17.633,33.791A11.086,11.086,0,0,0,25,30.95h0a10.419,10.419,0,0,0,1.1-1.16H23.837a13.376,13.376,0,0,1-.812-1.1H26.91a7.427,7.427,0,0,0,.638-1.16h-5.16a6.91,6.91,0,0,1-.464-1.16h6.03a11.513,11.513,0,0,0,.58-3.479,14.966,14.966,0,0,0-.232-2.319H21.576a8.476,8.476,0,0,1,.29-1.16H27.9a6.91,6.91,0,0,0-.464-1.16h-5.1a11.5,11.5,0,0,1,.638-1.16h3.885a5.514,5.514,0,0,0-.87-1.16H23.837a9.882,9.882,0,0,1,1.1-1.1,10.7,10.7,0,0,0-7.364-2.841h-.058" transform="translate(-6.675 -11.874)" fill="#cb2026"/><g transform="translate(1.044 8.117)"><path d="M22.946,30.863l.174-.986a2.511,2.511,0,0,1-.29.058c-.406,0-.464-.232-.406-.348l.348-2.029h.638l.174-1.1H23l.116-.7H21.96s-.7,3.827-.7,4.291a.87.87,0,0,0,.928.986A1.78,1.78,0,0,0,22.946,30.863Z" transform="translate(-9.146 -25.239)" fill="#fff"/><path d="M24.637,29.4a1.844,1.844,0,0,0,2.029,2.029,3.01,3.01,0,0,0,1.218-.174l.232-1.1a3.476,3.476,0,0,1-1.218.29c-1.276,0-1.044-.928-1.044-.928h2.377a7.518,7.518,0,0,0,.174-1.044,1.571,1.571,0,0,0-1.681-1.681C25.506,26.671,24.637,27.946,24.637,29.4Zm2.029-1.681c.638,0,.522.754.522.812H25.912C25.912,28.468,26.028,27.714,26.666,27.714Z" transform="translate(-10.431 -25.627)" fill="#fff"/><path d="M37.849,30.542l.232-1.276a2.849,2.849,0,0,1-.986.29c-.812,0-1.16-.638-1.16-1.334,0-1.392.7-2.145,1.507-2.145a1.936,1.936,0,0,1,1.044.348l.174-1.218a4.077,4.077,0,0,0-1.334-.29c-1.334,0-2.667,1.16-2.667,3.363,0,1.45.7,2.435,2.087,2.435A5.2,5.2,0,0,0,37.849,30.542Z" transform="translate(-14.251 -24.918)" fill="#fff"/><path d="M12.32,26.6a4.106,4.106,0,0,0-1.392.232l-.174.986a3.427,3.427,0,0,1,1.276-.232c.406,0,.754.058.754.406,0,.232-.058.29-.058.29H12.2c-.986,0-2.087.406-2.087,1.739,0,1.044.7,1.276,1.1,1.276a1.742,1.742,0,0,0,1.218-.522l-.058.464h1.044l.464-3.189A1.374,1.374,0,0,0,12.32,26.6Zm.232,2.609c0,.174-.116,1.1-.812,1.1a.453.453,0,0,1-.464-.464c0-.29.174-.7,1.044-.7A.914.914,0,0,0,12.552,29.213Z" transform="translate(-4.899 -25.56)" fill="#fff"/><path d="M17.165,31.264A1.486,1.486,0,0,0,18.9,29.757c0-1.45-1.392-1.16-1.392-1.739,0-.29.232-.406.638-.406.174,0,.812.058.812.058l.174-1.044a4.4,4.4,0,0,0-1.1-.116c-.87,0-1.739.348-1.739,1.507,0,1.334,1.45,1.218,1.45,1.739,0,.348-.406.406-.7.406a3.792,3.792,0,0,1-1.044-.174l-.174,1.044C15.889,31.148,16.179,31.264,17.165,31.264Z" transform="translate(-7.076 -25.524)" fill="#fff"/><path d="M53.327,25.1,53.1,26.67a1.608,1.608,0,0,0-1.1-.58c-1.044,0-1.971,1.276-1.971,2.783,0,.928.464,1.913,1.45,1.913a1.548,1.548,0,0,0,1.1-.464l-.058.406h1.16l.87-5.566Zm-.522,3.073c0,.638-.29,1.45-.928,1.45-.406,0-.638-.348-.638-.928,0-.928.406-1.507.928-1.507C52.574,27.192,52.806,27.482,52.806,28.178Z" transform="translate(-20.105 -24.989)" fill="#fff"/><path d="M2.788,30.671l.7-4.175L3.6,30.671h.812L5.919,26.5l-.638,4.175H6.5L7.426,25.1H5.513l-1.16,3.421L4.3,25.1H2.614l-.928,5.566Z" transform="translate(-1.686 -24.989)" fill="#fff"/><path d="M31.72,31.314c.348-1.913.406-3.479,1.218-3.189a4.551,4.551,0,0,1,.406-1.334h-.232c-.522,0-.928.7-.928.7l.116-.638H31.2l-.754,4.522H31.72Z" transform="translate(-12.644 -25.631)" fill="#fff"/><path d="M42.765,26.6a4.106,4.106,0,0,0-1.392.232l-.174.986a3.427,3.427,0,0,1,1.276-.232c.406,0,.754.058.754.406,0,.232-.058.29-.058.29h-.522c-.986,0-2.087.406-2.087,1.739,0,1.044.7,1.276,1.1,1.276a1.742,1.742,0,0,0,1.218-.522l-.058.464h1.044l.464-3.189A1.354,1.354,0,0,0,42.765,26.6Zm.29,2.609c0,.174-.116,1.1-.812,1.1a.453.453,0,0,1-.464-.464c0-.29.174-.7,1.044-.7C43,29.213,43,29.213,43.054,29.213Z" transform="translate(-16.499 -25.56)" fill="#fff"/><path d="M47.457,31.314c.348-1.913.406-3.479,1.218-3.189a4.551,4.551,0,0,1,.406-1.334h-.232c-.522,0-.928.7-.928.7l.116-.638h-1.1l-.754,4.522h1.276Z" transform="translate(-18.641 -25.631)" fill="#fff"/></g><g transform="translate(1.044 8.117)"><path d="M21.077,30.051a.87.87,0,0,0,.928.986,2.207,2.207,0,0,0,.87-.174l.174-.986a2.511,2.511,0,0,1-.29.058c-.406,0-.464-.232-.406-.348l.348-2.029h.638l.174-1.1h-.58l.116-.7" transform="translate(-9.075 -25.239)" fill="#dce5e5"/><path d="M25.573,29.4c0,1.623.522,2.029,1.45,2.029a3.01,3.01,0,0,0,1.218-.174l.232-1.1a3.476,3.476,0,0,1-1.218.29c-1.276,0-1.044-.928-1.044-.928h2.377a7.518,7.518,0,0,0,.174-1.044,1.571,1.571,0,0,0-1.681-1.681C25.863,26.671,25.573,27.946,25.573,29.4Zm1.45-1.681c.638,0,.754.754.754.812H26.269C26.269,28.468,26.385,27.714,27.023,27.714Z" transform="translate(-10.788 -25.627)" fill="#dce5e5"/><path d="M38.206,30.542l.232-1.276a2.849,2.849,0,0,1-.986.29c-.812,0-1.16-.638-1.16-1.334,0-1.392.7-2.145,1.507-2.145a1.936,1.936,0,0,1,1.044.348l.174-1.218a4.077,4.077,0,0,0-1.334-.29c-1.334,0-2.087,1.16-2.087,3.363,0,1.45.116,2.435,1.507,2.435A5.2,5.2,0,0,0,38.206,30.542Z" transform="translate(-14.608 -24.918)" fill="#dce5e5"/><path d="M10.755,27.951a3.427,3.427,0,0,1,1.276-.232c.406,0,.754.058.754.406,0,.232-.058.29-.058.29H12.2c-.986,0-2.087.406-2.087,1.739,0,1.044.7,1.276,1.1,1.276a1.742,1.742,0,0,0,1.218-.522l-.058.464h1.044l.464-3.189c0-1.334-1.16-1.392-1.623-1.392m.87,2.493a1.9,1.9,0,0,1-1.392,1.1.453.453,0,0,1-.464-.464c0-.29.174-.7,1.044-.7A4.737,4.737,0,0,0,13.132,29.284Z" transform="translate(-4.899 -25.631)" fill="#dce5e5"/><path d="M15.925,31.148a4.907,4.907,0,0,0,1.334.116A1.486,1.486,0,0,0,19,29.757c0-1.45-1.392-1.16-1.392-1.739,0-.29.232-.406.638-.406.174,0,.812.058.812.058l.174-1.044a4.4,4.4,0,0,0-1.1-.116c-.87,0-1.16.348-1.16,1.507,0,1.334.87,1.218.87,1.739,0,.348-.406.406-.7.406" transform="translate(-7.112 -25.524)" fill="#dce5e5"/><path d="M53.45,26.706a1.608,1.608,0,0,0-1.1-.58c-1.044,0-1.392,1.276-1.392,2.783,0,.928-.116,1.913.87,1.913a1.548,1.548,0,0,0,1.1-.464l-.058.406h1.16L54.9,25.2m-1.507,3.015c0,.638-.522,1.45-1.16,1.45-.406,0-.638-.348-.638-.928,0-.928.406-1.507.928-1.507A.886.886,0,0,1,53.392,28.214Z" transform="translate(-20.459 -25.025)" fill="#dce5e5"/><path d="M2.788,30.671l.7-4.175L3.6,30.671h.812L5.919,26.5l-.638,4.175H6.5L7.426,25.1H5.977L4.353,28.526,4.3,25.1H3.657L1.686,30.671Z" transform="translate(-1.686 -24.989)" fill="#dce5e5"/><path d="M30.538,31.314h1.218c.348-1.913.406-3.479,1.218-3.189a4.551,4.551,0,0,1,.406-1.334h-.232c-.522,0-.928.7-.928.7l.116-.638" transform="translate(-12.68 -25.631)" fill="#dce5e5"/><path d="M41.2,27.951a3.427,3.427,0,0,1,1.276-.232c.406,0,.754.058.754.406,0,.232-.058.29-.058.29h-.522c-.986,0-2.087.406-2.087,1.739,0,1.044.7,1.276,1.1,1.276a1.742,1.742,0,0,0,1.218-.522l-.058.464h1.044l.464-3.189c0-1.334-1.16-1.392-1.623-1.392m.87,2.493a1.9,1.9,0,0,1-1.392,1.1.453.453,0,0,1-.464-.464c0-.29.174-.7,1.044-.7A5.1,5.1,0,0,0,43.576,29.284Z" transform="translate(-16.499 -25.631)" fill="#dce5e5"/><path d="M46.275,31.314h1.218c.348-1.913.406-3.479,1.218-3.189a4.551,4.551,0,0,1,.406-1.334h-.232c-.522,0-.928.7-.928.7l.116-.638" transform="translate(-18.677 -25.631)" fill="#dce5e5"/></g></g></g></svg>