<svg xmlns="http://www.w3.org/2000/svg" width="20.6" height="26.775" viewBox="0 0 20.6 26.775"><path d="M10.944.457C5.44.457,0,4.126,0,10.065c0,3.777,2.124,5.922,3.412,5.922.531,0,.837-1.481.837-1.9,0-.5-1.271-1.561-1.271-3.637A7.25,7.25,0,0,1,10.509,3.08c3.653,0,6.357,2.076,6.357,5.89,0,2.849-1.143,8.192-4.844,8.192a2.382,2.382,0,0,1-2.478-2.35c0-2.028,1.416-3.991,1.416-6.083,0-3.551-5.037-2.908-5.037,1.384a6.3,6.3,0,0,0,.515,2.72C5.7,16.02,4.184,20.767,4.184,24.05c0,1.014.145,2.012.241,3.026.182.2.091.182.37.08,2.7-3.7,2.607-4.426,3.83-9.27a4.351,4.351,0,0,0,3.718,1.931c5.7,0,8.256-5.552,8.256-10.557C20.6,3.933,16,.457,10.944.457Z" transform="translate(0 -0.457)" fill="#171717"/></svg>