<svg xmlns="http://www.w3.org/2000/svg" width="22" height="20" viewBox="0 0 22 20"><g transform="translate(-1 -2)"><path d="M10,15l6-3L10,9Z" fill="#afafaf"/><path d="M21,2H3A2,2,0,0,0,1,4V20a2,2,0,0,0,2,2H21a2,2,0,0,0,2-2V4A2,2,0,0,0,21,2ZM3,20V4H21V20Z" fill="#afafaf"/><path d="M5,5H7V7H5Z" fill="#afafaf"/><path d="M9,5h2V7H9Z" fill="#afafaf"/><path d="M13,5h2V7H13Z" fill="#afafaf"/><path d="M17,5h2V7H17Z" fill="#afafaf"/><path d="M5,17H7v2H5Z" fill="#afafaf"/><path d="M9,17h2v2H9Z" fill="#afafaf"/><path d="M13,17h2v2H13Z" fill="#afafaf"/><path d="M17,17h2v2H17Z" fill="#afafaf"/></g></svg>