<svg xmlns="http://www.w3.org/2000/svg" xmlns:xlink="http://www.w3.org/1999/xlink" width="56.12" height="33.672" viewBox="0 0 56.12 33.672"><defs><clipPath id="a"><rect width="36.528" height="21.917" fill="#fff" stroke="#707070" stroke-width="1"/></clipPath></defs><g style="isolation:isolate"><rect width="56.12" height="33.672" transform="translate(0)" fill="#fff"/><g transform="translate(9.589 5.753)" clip-path="url(#a)"><g transform="translate(0 5.421)"><path d="M33,42.651l1.855-10.437h2.9l-1.8,10.437Z" transform="translate(-19.606 -31.866)" fill="#3c58bf"/><path d="M33,42.651l2.377-10.437h2.377l-1.8,10.437Z" transform="translate(-19.606 -31.866)" fill="#293688"/><path d="M53.157,31.821a7.354,7.354,0,0,0-2.667-.464c-2.9,0-4.986,1.45-4.986,3.537,0,1.565,1.45,2.377,2.609,2.9s1.507.87,1.507,1.334c0,.7-.928,1.044-1.739,1.044a6.3,6.3,0,0,1-2.783-.58l-.406-.174-.406,2.377a9.4,9.4,0,0,0,3.3.58c3.073,0,5.1-1.45,5.1-3.653,0-1.218-.754-2.145-2.493-2.9-1.044-.522-1.681-.812-1.681-1.334,0-.464.522-.928,1.681-.928a5.318,5.318,0,0,1,2.2.406l.29.116.464-2.261Z" transform="translate(-26.312 -31.357)" fill="#3c58bf"/><path d="M53.157,31.821a7.354,7.354,0,0,0-2.667-.464c-2.9,0-4.465,1.45-4.465,3.537a3.031,3.031,0,0,0,2.087,2.9c1.16.522,1.507.87,1.507,1.334,0,.7-.928,1.044-1.739,1.044a6.3,6.3,0,0,1-2.783-.58l-.406-.174-.406,2.377a9.4,9.4,0,0,0,3.3.58c3.073,0,5.1-1.45,5.1-3.653,0-1.218-.754-2.145-2.493-2.9-1.044-.522-1.681-.812-1.681-1.334,0-.464.522-.928,1.681-.928a5.318,5.318,0,0,1,2.2.406l.29.116.464-2.261Z" transform="translate(-26.312 -31.357)" fill="#293688"/><path d="M69.856,32.214c-.7,0-1.218.058-1.507.754L64,42.651h3.131l.58-1.739h3.711l.348,1.739h2.783L72.117,32.214Zm-1.334,6.958c.174-.522,1.16-3.073,1.16-3.073s.232-.638.406-1.044l.174.986s.58,2.609.7,3.189H68.522Z" transform="translate(-38.025 -31.866)" fill="#3c58bf"/><path d="M70.552,32.214c-.7,0-1.218.058-1.507.754L64,42.651h3.131l.58-1.739h3.711l.348,1.739h2.783L72.117,32.214Zm-2.029,6.958c.232-.58,1.16-3.073,1.16-3.073s.232-.638.406-1.044l.174.986s.58,2.609.7,3.189H68.522Z" transform="translate(-38.025 -31.866)" fill="#293688"/><path d="M13.491,39.6,13.2,38.1a8.4,8.4,0,0,0-4.059-4.58l2.609,9.277h3.131l4.7-10.437H16.448Z" transform="translate(-5.432 -31.951)" fill="#3c58bf"/><path d="M13.491,39.6,13.2,38.1a8.4,8.4,0,0,0-4.059-4.58l2.609,9.277h3.131l4.7-10.437H17.028Z" transform="translate(-5.432 -31.951)" fill="#293688"/><path d="M0,32.214l.522.116c3.711.87,6.262,3.073,7.248,5.682L6.726,33.084c-.174-.7-.7-.87-1.334-.87Z" transform="translate(0 -31.866)" fill="#ffbc00"/><path d="M0,32.214H0c3.711.87,6.784,3.131,7.769,5.74l-.986-4.117a1.415,1.415,0,0,0-1.392-1.1Z" transform="translate(0 -31.866)" fill="#f7981d"/><path d="M0,32.214H0c3.711.87,6.784,3.131,7.769,5.74l-.7-2.261a2.045,2.045,0,0,0-1.218-1.681Z" transform="translate(0 -31.866)" fill="#ed7c00"/><g transform="translate(3.769 1.507)"><path d="M16.475,40.869,14.5,38.9l-.928,2.2-.232-1.45a8.4,8.4,0,0,0-4.059-4.58l2.609,9.277h3.131Z" transform="translate(-9.286 -35.071)" fill="#051244"/><path d="M35.957,54.194l-2.493-2.551L33,54.194Z" transform="translate(-23.375 -44.917)" fill="#051244"/><path d="M49.33,49.071h0c.232.232.348.406.29.638,0,.7-.928,1.044-1.739,1.044a6.3,6.3,0,0,1-2.783-.58L44.692,50l-.406,2.377a9.4,9.4,0,0,0,3.3.58,5.741,5.741,0,0,0,4.233-1.45Z" transform="translate(-30.08 -43.389)" fill="#051244"/><path d="M65,46.81h2.725l.58-1.739h3.711l.348,1.739h2.783l-.986-4.233-3.479-3.363.174.928s.58,2.609.7,3.189H69.117c.232-.58,1.16-3.073,1.16-3.073s.232-.638.406-1.044" transform="translate(-42.388 -37.533)" fill="#051244"/></g></g></g></g></svg>